# AST/ASF file generated using VICON BodyLanguage
# -----------------------------------------------
:version 1.10
:name VICON
:units
  mass 1.0
  length 0.45
  angle deg
:documentation
   .ast/.asf automatically generated from VICON data using
   VICON BodyBuilder and BodyLanguage model FoxedUp or BRILLIANT.MOD
:root
   order TX TY TZ RX RY RZ
   axis XYZ
   position 0 0 0  
   orientation 0 0 0 
:bonedata
  begin
     id 1 
     name lhipjoint
     direction 0.756833 -0.6125 0.228138 
     length 2.53827 
     axis 0 0 0  XYZ
  end
  begin
     id 2 
     name lfemur
     direction 0.34202 -0.939693 0  
     length 6.51821  
     axis 0 0 20  XYZ
    dof rx ry rz
    limits (-160.0 20.0)
           (-70.0 70.0)
           (-60.0 70.0)
  end
  begin
     id 3 
     name ltibia
     direction 0.34202 -0.939693 0   
     length 6.99902   
     axis 0 0 20   XYZ
    dof rx
    limits (-10.0 170.0)
  end
  begin
     id 4 
     name lfoot
     direction 0.0951515 -0.261427 0.960522   
     length 1.92102   
     axis -90 7.62852e-016 20   XYZ
    dof rx rz
    limits (-45.0 90.0)
           (-70.0 20.0)
  end
  begin
     id 5 
     name ltoes
     direction 1.53539e-011 -4.21781e-011 1   
     length 0.964376   
     axis -90 7.62852e-016 20   XYZ
    dof rx
    limits (-90.0 20.0)
  end
  begin
     id 6 
     name rhipjoint
     direction -0.752153 -0.617542 0.230017   
     length 2.51754  
     axis 0 0 0  XYZ 
  end
  begin
     id 7 
     name rfemur
     direction -0.34202 -0.939693 0   
     length 6.82377   
     axis 0 0 -20   XYZ
    dof rx ry rz
    limits (-160.0 20.0)
           (-70.0 70.0)
           (-70.0 60.0)
  end
  begin
     id 8 
     name rtibia
     direction -0.34202 -0.939693 0   
     length 6.98689   
     axis 0 0 -20   XYZ
    dof rx
    limits (-10.0 170.0)
 end
 begin
     id 9 
     name rfoot
     direction -0.0900426 -0.24739 0.964723   
     length 2.03215  
     axis -90 -7.62852e-016 -20   XYZ
    dof rx rz
    limits (-45.0 90.0)
           (-20.0 70.0)
  end
  begin
     id 10 
     name rtoes
     direction -1.53466e-011 -4.22206e-011 1   
     length 1.0197   
     axis -90 -7.62852e-016 -20   XYZ
    dof rx
    limits (-90.0 20.0)
  end
  begin
     id 11 
     name lowerback
     direction 0.0184183 0.995705 -0.0907278   
     length 2.019   
     axis 0 0 0   XYZ
    dof rx ry rz
    limits (-20.0 45.0)
           (-30.0 30.0)
           (-30.0 30.0)
  end
  begin
     id 12 
     name upperback
     direction 0.00281055 0.998777 0.0493607   
     length 1.99623   
     axis 0 0 0   XYZ
    dof rx ry rz
    limits (-20.0 45.0)
           (-30.0 30.0)
           (-30.0 30.0)
  end
  begin
     id 13 
     name thorax
     direction -0.00665507 0.995706 0.092331   
     length 2.02811   
     axis 0 0 0   XYZ
    dof rx ry rz
    limits (-20.0 45.0)
           (-30.0 30.0)
           (-30.0 30.0)
  end
  begin
     id 14 
     name lowerneck
     direction -0.0960965 0.994358 0.0449225   
     length 1.71265   
     axis 0 0 0   XYZ
    dof rx ry rz
    limits (-20.0 45.0)
           (-30.0 30.0)
           (-30.0 30.0)
  end
  begin
     id 15 
     name upperneck
     direction 0.13642 0.985357 -0.102278   
     length 1.73016   
     axis 0 0 0   XYZ
    dof rx ry rz
    limits (-20.0 45.0)
           (-30.0 30.0)
           (-30.0 30.0)
  end
  begin
     id 16
     name head
     direction 0.0556079 0.997632 -0.040479  
     length 1.74275  
     axis 0 0 0   XYZ
    dof rx ry rz
    limits (-20.0 45.0)
           (-30.0 30.0)
           (-30.0 30.0)
  end
  begin
     id 17 
     name lclavicle
     direction 0.90877 0.417247 -0.00652364  
     length 3.25514  
     axis 0 0 0   XYZ
    dof ry rz
    limits (-20.0 10.0)
           (0.0 20.0)
  end
  begin
     id 18 
     name lhumerus
     direction 1 -4.48949e-011 8.31417e-028   
     length 4.84834   
     axis 180 -30 -90   XYZ
    dof rx ry rz
    limits (-60.0 90.0)
           (-90.0 90.0)
           (-90.0 90.0)
  end
  begin
     id 19
     name lradius
     direction 1 -4.48984e-011 3.45616e-027   
     length 2.99713   
     axis 180 -30 -90   XYZ
    dof rx
    limits (-10.0 170.0)
  end
  begin
     id 20
     name lwrist
     direction 1 -4.4891e-011 4.0479e-027   
     length 1.49857   
     axis -1.61768e-015 90 90   XYZ
    dof ry
    limits (-180.0 0.0)
 end
  begin
     id 21 
     name lhand
     direction 1 -4.49025e-011 8.0958e-027   
     length 0.693987   
     axis -5.16581e-015 90 90   XYZ
    dof rx rz
    limits (-90.0 90.0)
           (-45.0 45.0)
  end
  begin
     id 22 
     name lfingers
     direction 1 -4.4888e-011 1.61916e-026   
     length 0.55951   
     axis -1.03316e-014 90 90   XYZ
    dof rx
    limits (0.0 90.0)
  end
  begin
     id 23
     name lthumb
     direction 0.707107 -6.3493e-011 0.707107   
     length 0.803348   
     axis -90 45 2.85299e-015   XYZ
    dof rx rz
    limits (-45.0 45.0)
           (-45.0 45.0)
  end
  begin
     id 24 
     name rclavicle
     direction -0.906655 0.41906 0.0486307   
     length 3.3311  
     axis 0 0 0   XYZ 
    dof ry rz
    limits (-10.0 20.0)
           (-20.0 0.0)
  end
  begin
     id 25 
     name rhumerus
     direction -1 -4.48959e-011 6.37764e-018  
     length 4.93457   
     axis 180 30 90   XYZ
    dof rx ry rz
    limits (-90.0 60.0)
           (-90.0 90.0)
           (-90.0 90.0)
  end
  begin
     id 26 
     name rradius
     direction -1 -4.48957e-011 2.20847e-027   
     length 3.3443   
     axis 180 30 90   XYZ
    dof rx
    limits (-10.0 170.0)
  end
  begin
     id 27 
     name rwrist
     direction -1 -4.49008e-011 4.0479e-027   
     length 1.67215   
     axis -1.61768e-015 -90 -90   XYZ
    dof ry
    limits (-180.0 0.0)
  end
  begin
     id 28
     name rhand
     direction -1 -4.49013e-011 8.0958e-027   
     length 0.677363   
     axis -5.16581e-015 -90 -90   XYZ
    dof rx rz
    limits (-90.0 90.0)
           (-45.0 45.0)
  end
  begin
     id 29
     name rfingers
     direction -1 -4.48832e-011 1.61916e-026   
     length 0.546107   
     axis -1.03316e-014 -90 -90   XYZ
    dof rx
    limits (0.0 90.0)
  end
  begin
     id 30
     name rthumb
     direction -0.707107 -6.34895e-011 0.707107   
     length 0.784104   
     axis -90 -45 -2.85299e-015   XYZ
    dof rx rz
    limits (-45.0 45.0)
           (-45.0 45.0)
  end
:hierarchy
  begin
    root lhipjoint rhipjoint lowerback
    lhipjoint lfemur
    lfemur ltibia
    ltibia lfoot
    lfoot ltoes
    rhipjoint rfemur
    rfemur rtibia
    rtibia rfoot
    rfoot rtoes
    lowerback upperback
    upperback thorax
    thorax lowerneck lclavicle rclavicle
    lowerneck upperneck
    upperneck head
    lclavicle lhumerus
    lhumerus lradius
    lradius lwrist
    lwrist lhand lthumb
    lhand lfingers
    rclavicle rhumerus
    rhumerus rradius
    rradius rwrist
    rwrist rhand rthumb
    rhand rfingers
  end

#!OML:ASF H:\Terrain\Patient Classification 1\junglegym\FridayTest\junglegym.ASF
:FULLY-SPECIFIED
:DEGREES
162
root 8.50695 16.4723 -10.6012 4.04008 -0.411982 -6.32937
lowerback 1.86986 -2.13892 4.14776
upperback -2.82477 -2.57393 3.64675
thorax -3.98367 -1.34689 1.58381
lowerneck -5.46701 -1.047 -13.8198
upperneck 14.1459 -1.74582 12.8197
head 5.328 -0.763857 6.29377
rclavicle 3.34207e-015 2.46493e-014
rhumerus -43.219 -15.3952 -69.4682
rradius 17.3444
rwrist 16.5887
rhand -17.544 26.1243
rfingers 7.12502
rthumb 8.7104 -3.67598
lclavicle 3.34207e-015 2.46493e-014
lhumerus -36.8267 8.14598 79.3525
lradius 24.9836
lwrist -28.2163
lhand -6.85903 23.3052
lfingers 7.12502
lthumb 19.0064 52.3965
rfemur -23.6476 3.10492 31.5675
rtibia 27.3936
rfoot -3.41461 -6.77415
rtoes 3.09708
lfemur -16.631 4.59586 -13.8754
ltibia 72.5431
lfoot 8.44889 2.59356
ltoes -4.80046
163
root 8.50667 16.4971 -10.4334 4.01182 -0.536784 -6.71321
lowerback 2.05725 -2.0217 4.55943
upperback -2.85086 -2.38277 3.73879
thorax -4.13139 -1.26384 1.44912
lowerneck -5.18204 -1.02895 -13.6869
upperneck 14.0794 -1.74546 12.6719
head 5.25662 -0.774049 6.21851
rclavicle -2.43635e-014 1.90833e-014
rhumerus -42.4324 -15.1742 -69.9245
rradius 17.4226
rwrist 16.4817
rhand -17.441 25.4078
rfingers 7.12502
rthumb 8.80976 -4.38829
lclavicle -2.43635e-014 1.90833e-014
lhumerus -37.1578 8.98046 79.0744
lradius 24.2252
lwrist -29.0155
lhand -6.64899 23.2224
lfingers 7.12502
lthumb 19.2084 52.2938
rfemur -22.755 3.09921 32.0262
rtibia 27.0613
rfoot -3.98008 -6.79605
rtoes 5.40354
lfemur -18.5182 4.25247 -13.6656
ltibia 73.7448
lfoot 7.68735 2.07941
ltoes -5.23536
164
root 8.50269 16.5289 -10.2616 3.84266 -0.725854 -6.53473
lowerback 2.44189 -1.89075 4.41033
upperback -2.97206 -2.18334 3.6377
thorax -4.47192 -1.16574 1.43488
lowerneck -4.61502 -0.989298 -13.6214
upperneck 14.0096 -1.76415 12.674
head 5.13808 -0.796625 6.20312
rclavicle -1.9543e-014 2.06736e-014
rhumerus -41.7933 -14.6545 -70.5914
rradius 17.5298
rwrist 15.9441
rhand -17.4274 25.3331
rfingers 7.12502
rthumb 8.82292 -4.46243
lclavicle -1.9543e-014 2.06736e-014
lhumerus -37.835 9.44157 78.8016
lradius 23.7293
lwrist -29.6629
lhand -6.18452 23.1431
lfingers 7.12502
lthumb 19.655 52.1695
rfemur -21.6314 3.36934 31.8397
rtibia 26.6113
rfoot -4.42247 -6.96232
rtoes 7.27721
lfemur -20.0266 3.76142 -14.0964
ltibia 74.461
lfoot 7.29858 1.72003
ltoes -5.57093
165
root 8.49951 16.5699 -10.0833 3.61995 -1.06635 -5.95492
lowerback 2.78249 -1.7063 3.89153
upperback -3.01704 -1.94618 3.39176
thorax -4.69857 -1.03725 1.46649
lowerneck -4.28264 -1.02104 -13.7448
upperneck 14.0158 -1.8512 12.7713
head 5.09537 -0.850161 6.25126
rclavicle -2.56556e-014 4.09496e-014
rhumerus -41.1403 -14.0725 -71.3839
rradius 17.7397
rwrist 15.2823
rhand -17.4782 25.4904
rfingers 7.12502
rthumb 8.7739 -4.30721
lclavicle -2.56556e-014 4.09496e-014
lhumerus -38.5394 9.24412 78.7959
lradius 23.5951
lwrist -29.7396
lhand -5.46297 23.248
lfingers 7.12502
lthumb 20.3485 52.2019
rfemur -20.3467 3.7131 31.2391
rtibia 26.0861
rfoot -4.69945 -7.16255
rtoes 6.62125
lfemur -21.1837 3.27012 -15.0441
ltibia 74.7914
lfoot 7.14114 1.33747
ltoes -8.50762
166
root 8.49503 16.6127 -9.90446 3.61256 -1.40002 -5.51901
lowerback 2.75442 -1.52299 3.40015
upperback -2.98838 -1.73413 3.26401
thorax -4.63825 -0.917286 1.59084
lowerneck -4.26674 -1.0399 -13.9092
upperneck 14.1338 -1.87841 12.8217
head 5.13409 -0.870126 6.29793
rclavicle 2.00773e-014 -3.33958e-014
rhumerus -40.3197 -13.5178 -72.0912
rradius 18.0436
rwrist 14.5225
rhand -17.7476 25.7918
rfingers 7.12502
rthumb 8.51397 -4.01658
lclavicle 2.00773e-014 -3.33958e-014
lhumerus -38.9953 9.2086 78.8702
lradius 23.3978
lwrist -29.8358
lhand -4.85526 23.381
lfingers 7.12502
lthumb 20.9325 52.2716
rfemur -19.4004 4.05585 30.8165
rtibia 25.7968
rfoot -4.94659 -7.41137
rtoes 2.82208
lfemur -22.8804 2.79851 -15.7326
ltibia 75.1094
lfoot 7.24715 1.32182
ltoes -6.88178
167
root 8.49019 16.6454 -9.72528 3.7009 -1.67136 -5.55627
lowerback 2.6295 -1.36577 3.38265
upperback -2.96334 -1.53288 3.27323
thorax -4.54034 -0.815943 1.5918
lowerneck -4.1621 -1.04753 -14.0806
upperneck 14.0866 -1.89649 12.9252
head 5.10583 -0.884637 6.35981
rclavicle -7.77745e-015 7.95139e-016
rhumerus -39.4046 -12.7505 -72.9289
rradius 18.347
rwrist 13.4805
rhand -18.1639 26.2692
rfingers 7.12502
rthumb 8.11214 -3.55513
lclavicle -7.77745e-015 7.95139e-016
lhumerus -39.3331 9.18683 79.0014
lradius 23.1708
lwrist -29.6826
lhand -4.4273 23.6107
lfingers 7.12502
lthumb 21.3436 52.4553
rfemur -18.6973 4.41762 30.8929
rtibia 25.7728
rfoot -5.5207 -7.6947
rtoes -0.347993
lfemur -24.7271 2.4306 -15.7893
ltibia 75.3265
lfoot 7.05043 1.66818
ltoes -1.91357
168
root 8.49111 16.6415 -9.55252 3.79612 -1.92532 -5.57867
lowerback 2.55956 -1.18315 3.52548
upperback -2.94435 -1.28954 3.20525
thorax -4.48606 -0.700419 1.42307
lowerneck -4.1143 -1.12555 -14.2551
upperneck 14.0385 -2.01209 13.0879
head 5.10158 -0.941824 6.43694
rclavicle -5.15598e-015 7.95139e-015
rhumerus -38.4581 -11.9345 -73.8302
rradius 18.6692
rwrist 12.6191
rhand -18.4395 26.4672
rfingers 7.12502
rthumb 7.84612 -3.36722
lclavicle -5.15598e-015 7.95139e-015
lhumerus -39.762 8.92505 79.2321
lradius 23.259
lwrist -29.548
lhand -4.08869 23.8421
lfingers 7.12502
lthumb 21.6688 52.6495
rfemur -18.1574 4.63212 30.9394
rtibia 25.8864
rfoot -6.33754 -7.7681
rtoes 0.820614
lfemur -26.0525 2.29885 -15.9819
ltibia 75.2382
lfoot 6.38157 1.63871
ltoes -4.37009
169
root 8.49537 16.6332 -9.38212 3.84018 -2.19587 -5.32486
lowerback 2.51864 -0.986627 3.48948
upperback -2.94819 -1.03811 3.01523
thorax -4.46833 -0.577492 1.22886
lowerneck -3.88861 -1.1729 -14.2489
upperneck 13.9691 -2.10228 13.0916
head 5.05428 -0.992034 6.43
rclavicle -1.66482e-014 7.95139e-016
rhumerus -37.6174 -11.1373 -74.6548
rradius 19.0518
rwrist 11.915
rhand -18.5274 26.7469
rfingers 7.12502
rthumb 7.76129 -3.09064
lclavicle -1.66482e-014 7.95139e-016
lhumerus -40.3332 8.81318 79.2773
lradius 23.2982
lwrist -29.653
lhand -3.97804 23.2259
lfingers 7.12502
lthumb 21.7751 52.021
rfemur -17.6566 4.87306 30.6735
rtibia 26.1583
rfoot -7.18262 -7.91006
rtoes 3.10266
lfemur -27.2522 2.18598 -16.5218
ltibia 74.9695
lfoot 5.87178 1.31793
ltoes -12.5113
170
root 8.49656 16.6395 -9.2096 3.69786 -2.5705 -5.32016
lowerback 2.80299 -0.807648 3.59266
upperback -2.95551 -0.780671 2.92436
thorax -4.63932 -0.456004 1.06584
lowerneck -3.63648 -1.13859 -14.1848
upperneck 13.9475 -2.0896 13.0753
head 5.00106 -0.99127 6.41322
rclavicle -9.42985e-015 9.93923e-015
rhumerus -36.8697 -10.043 -75.5662
rradius 19.5607
rwrist 10.8616
rhand -18.2251 26.9228
rfingers 7.12502
rthumb 8.05308 -2.90372
lclavicle -9.42985e-015 9.93923e-015
lhumerus -41.0009 8.4128 79.3972
lradius 23.2551
lwrist -29.0804
lhand -4.34976 21.4822
lfingers 7.12502
lthumb 21.4181 50.3183
rfemur -16.9516 5.24164 30.6892
rtibia 26.6802
rfoot -8.3212 -8.07818
rtoes 5.11342
lfemur -28.3572 2.10733 -16.6529
ltibia 74.5715
lfoot 5.42451 1.39106
ltoes -13.7937
171
root 8.4941 16.6375 -9.03794 3.63586 -2.9897 -5.51879
lowerback 3.10059 -0.603776 3.80115
upperback -2.95717 -0.479942 2.91554
thorax -4.81072 -0.315545 0.923903
lowerneck -3.67149 -1.14348 -14.2007
upperneck 14.0293 -2.10632 13.1511
head 5.03448 -0.995189 6.44258
rclavicle -1.55487e-014 8.34896e-015
rhumerus -36.1292 -8.89873 -76.4839
rradius 20.2286
rwrist 9.67259
rhand -18.1564 26.5687
rfingers 7.12502
rthumb 8.11939 -3.25535
lclavicle -1.55487e-014 8.34896e-015
lhumerus -41.6525 7.36125 79.9196
lradius 23.5515
lwrist -28.1257
lhand -4.17292 20.4181
lfingers 7.12502
lthumb 21.5879 49.2348
rfemur -16.3902 5.56171 30.9511
rtibia 27.2717
rfoot -9.36933 -8.08393
rtoes 5.56531
lfemur -29.548 2.17729 -16.4874
ltibia 74.0452
lfoot 4.81191 1.46591
ltoes -12.2954
172
root 8.49549 16.6171 -8.86462 3.7682 -3.35547 -5.53069
lowerback 3.08825 -0.408317 3.92346
upperback -3.00677 -0.215864 2.79512
thorax -4.85343 -0.191866 0.711978
lowerneck -3.52489 -1.14889 -14.1843
upperneck 13.9212 -2.13921 13.25
head 4.98066 -1.00883 6.46828
rclavicle -5.75233e-015 2.78299e-014
rhumerus -35.5189 -7.7267 -77.44
rradius 21.0765
rwrist 8.4605
rhand -18.4979 26.2941
rfingers 7.12502
rthumb 7.78982 -3.54243
lclavicle -5.75233e-015 2.78299e-014
lhumerus -42.2357 6.32802 80.4447
lradius 23.8668
lwrist -27.3718
lhand -3.45576 20.8895
lfingers 7.12502
lthumb 22.2765 49.6255
rfemur -16.1024 5.60727 31.0303
rtibia 27.7149
rfoot -9.88626 -8.10978
rtoes 2.0987
lfemur -30.9717 2.16867 -16.597
ltibia 73.4098
lfoot 4.08657 1.36003
ltoes -16.3123
173
root 8.49929 16.5881 -8.69325 3.80783 -3.75498 -5.37905
lowerback 3.15234 -0.259587 3.89206
upperback -3.07199 -0.0188244 2.63778
thorax -4.95445 -0.0977636 0.5531
lowerneck -3.1415 -1.1155 -14.2624
upperneck 13.7003 -2.12794 13.3112
head 4.84632 -1.01515 6.49715
rclavicle -1.59028e-015 -2.38542e-015
rhumerus -34.9515 -6.58108 -78.3165
rradius 21.8839
rwrist 7.45317
rhand -18.0754 26.2232
rfingers 7.12502
rthumb 8.19756 -3.59776
lclavicle -1.59028e-015 -2.38542e-015
lhumerus -42.9111 5.7085 80.737
lradius 24.0922
lwrist -26.9177
lhand -3.30419 21.3059
lfingers 7.12502
lthumb 22.422 50.0244
rfemur -15.633 5.60547 30.907
rtibia 28.054
rfoot -10.4802 -8.01725
rtoes 0.00323724
lfemur -32.1801 2.04555 -16.8861
ltibia 72.6415
lfoot 3.12478 1.50724
ltoes -19.6998
174
root 8.5003 16.5755 -8.52494 3.84205 -4.1257 -5.48592
lowerback 3.32013 -0.100797 4.1544
upperback -2.90103 0.205884 2.53477
thorax -4.86648 0.00513306 0.282107
lowerneck -3.78352 -1.2681 -14.3153
upperneck 13.7448 -2.25317 13.3174
head 4.99105 -1.05802 6.50343
rclavicle 1.30452e-016 -1.03368e-014
rhumerus -33.8401 -5.7873 -79.1249
rradius 22.5571
rwrist 6.64263
rhand -17.9059 26.684
rfingers 7.12502
rthumb 8.3611 -3.13054
lclavicle 1.30452e-016 -1.03368e-014
lhumerus -43.2264 5.03383 81.0726
lradius 24.6718
lwrist -26.598
lhand -2.83844 21.297
lfingers 7.12502
lthumb 22.869 49.961
rfemur -15.0351 5.73212 31.0299
rtibia 28.2914
rfoot -11.2334 -7.92449
rtoes 0.194815
lfemur -33.387 1.94264 -16.7532
ltibia 71.7633
lfoot 2.20156 1.67886
ltoes -18.9743
175
root 8.50419 16.5755 -8.3489 4.05048 -4.28432 -5.78262
lowerback 3.34183 0.0532702 4.68964
upperback -2.93917 0.439834 2.42447
thorax -4.91065 0.0993473 -0.147992
lowerneck -3.77775 -1.34735 -13.9145
upperneck 13.5114 -2.35712 13.1442
head 4.92932 -1.09733 6.36473
rclavicle 1.17625e-014 -6.36111e-015
rhumerus -33.2486 -4.82976 -79.9535
rradius 23.414
rwrist 5.38409
rhand -18.7736 27.7517
rfingers 7.12502
rthumb 7.52367 -2.09446
lclavicle 1.17625e-014 -6.36111e-015
lhumerus -43.8041 3.99098 81.478
lradius 25.1917
lwrist -26.0331
lhand -2.13333 21.1749
lfingers 7.12502
lthumb 23.5455 49.7536
rfemur -14.537 5.61404 31.3317
rtibia 28.3966
rfoot -12.0085 -7.75149
rtoes 0.551327
lfemur -34.7876 1.71945 -16.3478
ltibia 70.7415
lfoot 1.53626 1.71071
ltoes -19.4273
